<?xml version="1.0" encoding="utf-8"?>
<svg width="800px" height="800px" viewBox="0 0 1024 1024" class="icon" version="1.1" xmlns="http://www.w3.org/2000/svg" xmlns:bx="https://boxy-svg.com"><defs><bx:export><bx:file format="svg"/></bx:export></defs><g id="svg2" style="transform-origin: 745.25px 504.678px;" transform="matrix(0.817722, 0, 0, 0.817722, -222.544708, 62.385979)"><g stroke-width="30" stroke="#fff" fill="none" id="g4" transform="matrix(1, 0, 0, 1, 235.250259, 257.178253)"><g stroke-width="45" id="g6"><circle cx="345" cy="315" r="135" id="circle8"/><circle cx="675" cy="315" r="135" id="circle10"/></g><circle cx="345" cy="315" r="135" stroke="#f4c300" id="circle12"/><circle cx="675" cy="315" r="135" stroke="#009f3d" id="circle14"/><g stroke-width="45" id="g16"><circle cx="180" cy="180" r="135" id="circle18"/><circle cx="510" cy="180" r="135" id="circle20"/><circle cx="840" cy="180" r="135" id="circle22"/></g><circle cx="180" cy="180" r="135" stroke="#0085c7" id="circle24"/><circle cx="510" cy="180" r="135" stroke="#000" id="circle26"/><circle cx="840" cy="180" r="135" stroke="#df0024" id="circle28"/><g stroke-width="45" id="g30"><path d="M345,180A135,135 0 0 1 426,207" id="path32"/><path d="M237,396A135,135 0 0 1 237,234" id="path34"/><path d="M675,180A135,135 0 0 1 756,207" id="path36"/><path d="M567,396A135,135 0 0 1 567,234" id="path38"/></g><path d="m 344.9,180 c 20.86414,0 41.81238,4.9216 60.47384,14.25233 C 424.03529,203.58306 440.48151,217.30869 453,234" id="path40" style="stroke:#f4c300"/><path d="M264,423A135,135 0 0 1 264,207" stroke="#f4c300" id="path42"/><path d="m 674.9,180 c 20.86414,0 41.81238,4.9216 60.47384,14.25233 C 754.03529,203.58306 770.48151,217.30869 783,234" id="path44" style="stroke:#009f3d"/><path d="M594,423A135,135 0 0 1 594,207" stroke="#009f3d" id="path46"/></g></g><path d="M948.096 64h-851.2a22.528 22.528 0 0 0-22.4 22.4v851.2c0 12.288 10.112 22.4 22.4 22.4h75.072v-0.384c0.704 0.064 1.28 0.384 1.92 0.384a24.96 24.96 0 0 0 0-49.856c-0.704 0-1.28 0.32-1.92 0.384v-0.576h-52.672V322.816h806.4v369.28h-194.752a22.528 22.528 0 0 0-22.464 22.464v195.52H272v0.704c-0.832-0.128-1.472-0.512-2.368-0.512a24.896 24.896 0 1 0 0 49.728c0.832 0 1.536-0.384 2.368-0.512V960h497.92l200.576-199.744V86.4a22.464 22.464 0 0 0-22.4-22.4z m-194.752 842.624v-169.728h171.264l-171.264 169.728z" fill=""/><path d="M119.936 280a0.64 0.64 0 0 1-0.64-0.64V109.44a0.64 0.64 0 0 1 0.64-0.64h805.12a0.64 0.64 0 0 1 0.64 0.64v169.92a0.64 0.64 0 0 1-0.64 0.64H119.936z" style="fill: rgb(62, 156, 255);"/><path d="M318.976 193.984m-54.016 0a54.016 54.016 0 1 0 108.032 0 54.016 54.016 0 1 0-108.032 0Z" fill=""/><path d="M318.976 193.984m-31.616 0a31.616 31.616 0 1 0 63.232 0 31.616 31.616 0 1 0-63.232 0Z" fill="#FFFFFF"/><path d="M726.016 193.984m-54.016 0a54.016 54.016 0 1 0 108.032 0 54.016 54.016 0 1 0-108.032 0Z" fill=""/><path d="M726.016 193.984m-31.616 0a31.616 31.616 0 1 0 63.232 0 31.616 31.616 0 1 0-63.232 0Z" fill="#FFFFFF"/><path d="M361.024 182.784h326.016v22.4H361.024z" fill=""/></svg>